<mxfile host="app.diagrams.net" modified="2024-06-11T19:57:22.976Z" agent="Mozilla/5.0 (Windows NT 10.0; Win64; x64) AppleWebKit/537.36 (KHTML, like Gecko) Chrome/125.0.0.0 Safari/537.36" etag="OkegVWU8SZ39yCFKcs1b" version="24.4.3" type="device">
  <diagram name="1 oldal" id="EOmbGLvi52W3nOWxFfWI">
    <mxGraphModel dx="1430" dy="814" grid="1" gridSize="10" guides="1" tooltips="1" connect="1" arrows="1" fold="1" page="1" pageScale="1" pageWidth="827" pageHeight="1169" math="0" shadow="0">
      <root>
        <mxCell id="0" />
        <mxCell id="1" parent="0" />
        <mxCell id="r4gF71t1RI9n_d2UYlHK-7" style="edgeStyle=orthogonalEdgeStyle;rounded=0;orthogonalLoop=1;jettySize=auto;html=1;exitX=1;exitY=0.5;exitDx=0;exitDy=0;entryX=0;entryY=0.5;entryDx=0;entryDy=0;" edge="1" parent="1" source="r4gF71t1RI9n_d2UYlHK-3" target="r4gF71t1RI9n_d2UYlHK-6">
          <mxGeometry relative="1" as="geometry" />
        </mxCell>
        <mxCell id="r4gF71t1RI9n_d2UYlHK-3" value="service 1" style="rounded=0;whiteSpace=wrap;html=1;horizontal=1;verticalAlign=top;fillColor=#fff2cc;strokeColor=#d6b656;" vertex="1" parent="1">
          <mxGeometry x="120" y="200" width="120" height="80" as="geometry" />
        </mxCell>
        <mxCell id="r4gF71t1RI9n_d2UYlHK-5" value="Brave" style="rounded=0;whiteSpace=wrap;html=1;fillColor=#ffe6cc;strokeColor=#d79b00;" vertex="1" parent="1">
          <mxGeometry x="140" y="230" width="80" height="40" as="geometry" />
        </mxCell>
        <mxCell id="r4gF71t1RI9n_d2UYlHK-6" value="Zipkin" style="rounded=0;whiteSpace=wrap;html=1;horizontal=1;verticalAlign=top;fillColor=#fff2cc;strokeColor=#d6b656;" vertex="1" parent="1">
          <mxGeometry x="320" y="200" width="120" height="80" as="geometry" />
        </mxCell>
      </root>
    </mxGraphModel>
  </diagram>
</mxfile>
